<svg xmlns="http://www.w3.org/2000/svg" viewBox="0 0 512 512" width="100%" height="100%">
  <defs>
    <linearGradient id="playfair-gold" x1="0%" y1="100%" x2="100%" y2="0%">
      <stop offset="0%" stop-color="#C59A3F" />
      <stop offset="30%" stop-color="#E9C36C" />
      <stop offset="50%" stop-color="#FCE0AD" />
      <stop offset="70%" stop-color="#DCA842" />
      <stop offset="100%" stop-color="#A17424" />
    </linearGradient>

    <filter id="soft-shadow" x="-10%" y="-10%" width="130%" height="130%">
      <feDropShadow dx="2" dy="4" stdDeviation="6" flood-color="#000000" flood-opacity="0.6" />
    </filter>
  </defs>

  <rect width="512" height="512" fill="#121212" />

  <g filter="url(#soft-shadow)" transform="translate(-128, -128) scale(1.5)">
    <path d="M 182,168 
             C 189,168 196.5,169.5 200,173 
             C 203.5,176.5 204.5,182 204.5,190 
             V 317 
             C 204.5,332 199,338 184,339 
             H 175 
             V 348 
             H 318 
             L 326.5,296 
             H 318.5 
             C 315,310 307.5,321 296,328 
             C 287.5,333 274,335.5 255.5,335.5 
             H 239.5 
             V 190 
             C 239.5,182 240.5,176.5 244,173 
             C 247.5,169.5 255,168 262,168 
             H 271 
             V 159 
             H 173 
             V 168 
             Z" 
          fill="url(#playfair-gold)" />
  </g>
</svg>
